<?xml version="1.0" encoding="utf-8"?>
<!-- Generator: Adobe Illustrator 24.1.1, SVG Export Plug-In . SVG Version: 6.00 Build 0)  -->
<svg version="1.1" id="Layer_1" xmlns="http://www.w3.org/2000/svg" xmlns:xlink="http://www.w3.org/1999/xlink" x="0px" y="0px"
	 viewBox="0 0 512 512" style="enable-background:new 0 0 512 512;" xml:space="preserve">
<g>
	<path d="M199.17,302.42c65.83,0,119.28-53.45,119.28-118.71c0-65.83-53.45-118.72-119.28-118.72
		c-65.82,0-119.27,53.45-119.27,118.72C80.46,248.97,133.91,302.42,199.17,302.42z M199.17,109.43c41.08,0,74.27,33.2,74.27,73.71
		c0,40.51-33.19,73.71-74.27,73.71c-41.07,0-74.26-33.2-74.26-73.71C125.47,142.63,158.66,109.43,199.17,109.43z M253.19,313.11
		c-6.19-1.69-12.94-1.13-18.57,2.25l-35.45,21.38l-35.45-21.38c-5.63-3.37-12.38-3.94-18.57-2.25C110.84,324.36,0,364.31,0,424.51
		c0,12.38,10.13,22.51,22.51,22.51h353.34c12.38,0,22.51-10.13,22.51-22.51C398.35,364.31,287.51,324.36,253.19,313.11z
		 M63.02,402.01c19.13-14.63,51.2-30.38,86.08-42.76l38.26,23.07c7.31,4.5,16.32,4.5,23.07,0l38.26-23.07
		c34.88,11.82,66.95,28.13,86.08,42.76H63.02z M512,385.13c0,9.57-7.31,16.88-16.88,16.88h-75.4c-9.57,0-16.88-7.31-16.88-16.88
		s7.31-16.88,16.88-16.88h50.08c-8.44-11.25-21.95-20.26-38.82-29.26c-8.44-4.5-11.25-14.63-6.75-22.51
		c4.51-8.44,14.63-11.25,23.07-6.75C471.49,322.67,512,350.24,512,385.13z M417.48,236.59c0-24.75-20.26-44.45-44.45-44.45
		c-6.19,0-11.81,1.12-17.44,3.37c-8.44,3.37-18.57-0.56-21.95-9s0.56-18.57,9-21.95c9.57-3.94,19.69-6.19,30.38-6.19
		c43.32,0,78.21,34.88,78.21,78.21s-35.45,78.21-78.21,78.21c-22.51,0-43.88-9.57-58.52-26.45c-6.19-6.75-5.63-17.44,1.69-23.63
		c6.75-6.19,17.44-5.63,23.63,1.69c8.44,9.57,20.82,15.19,33.76,15.19C397.22,281.04,417.48,260.78,417.48,236.59z"/>
</g>
</svg>
